<?xml version="1.0" encoding="UTF-8"?>
<svg id="Layer_2" data-name="Layer 2" xmlns="http://www.w3.org/2000/svg" viewBox="0 0 53.49 66.31">
  <defs>
    <style>
      .cls-1 {
        fill: #f8f184;
        stroke: #8d8e8e;
      }

      .cls-1, .cls-2 {
        stroke-linecap: round;
        stroke-linejoin: round;
      }

      .cls-2, .cls-3, .cls-4 {
        stroke: #231f20;
      }

      .cls-2, .cls-4 {
        fill: #fff;
      }

      .cls-3 {
        fill: #83d1d7;
      }

      .cls-3, .cls-4 {
        stroke-miterlimit: 10;
      }
    </style>
  </defs>
  <g id="Layer_1-2" data-name="Layer 1">
    <path class="cls-1" d="M18.75,6.07s-1.92-3.08-5.33-1-5.41-1.73-5.41-1.73c0,0-.46-4.21-4.43-2.37s0,5.1,0,5.1c0,0,2.78,3.16-.55,5.73-3.33,2.57-.6,5.5-.6,5.5L18.75,6.07Z"/>
    <path class="cls-3" d="M26.47,13.63s2.51-.88-1.18-5.43-5.41-2.05-5.41-2.05L2.43,17.3s-3.51,2.57-1.06,6.55,3.99,3.99,5.77,2.78,19.32-12.99,19.32-12.99Z"/>
    <path class="cls-4" d="M6.98,27.32s-6.07,2.64,10.15,27.18c0,0,10.04,21.41,27,5.32,0,0,17.41-4.03,3.42-26.15S30.78,15.07,27.77,13.96,6.98,27.32,6.98,27.32Z"/>
    <path class="cls-2" d="M10.06,35.78s4.44-.89,6.55-3.43"/>
    <path class="cls-2" d="M13.9,41.92s4.49-1.07,6.33-3.89"/>
    <path class="cls-2" d="M17.8,47.7s3.29-.26,6.15-4.26"/>
    <path class="cls-2" d="M22.24,53.67s3.41-1.07,5.06-3.9"/>
  </g>
</svg>