<?xml version="1.0" encoding="UTF-8"?>
<svg id="Layer_2" data-name="Layer 2" xmlns="http://www.w3.org/2000/svg" viewBox="0 0 395.69 250.42">
  <defs>
    <style>
      .cls-1 {
        fill: #fff;
      }

      .cls-1, .cls-2, .cls-3, .cls-4, .cls-5, .cls-6, .cls-7, .cls-8, .cls-9, .cls-10 {
        stroke: #231f20;
        stroke-width: 3px;
      }

      .cls-1, .cls-3, .cls-6, .cls-7, .cls-10 {
        stroke-linecap: round;
        stroke-linejoin: round;
      }

      .cls-2 {
        fill: #a9d7ad;
      }

      .cls-2, .cls-4, .cls-5, .cls-8, .cls-9 {
        stroke-miterlimit: 10;
      }

      .cls-3, .cls-4 {
        fill: #2fb44a;
      }

      .cls-5 {
        fill: #c2cee9;
      }

      .cls-6 {
        fill: #83d1d7;
      }

      .cls-7 {
        fill: #ba6028;
      }

      .cls-8 {
        fill: #f9a348;
      }

      .cls-9 {
        fill: none;
      }

      .cls-10 {
        fill: #eaeb83;
      }
    </style>
  </defs>
  <g id="Layer_1-2" data-name="Layer 1">
    <rect class="cls-2" x="1.5" y="1.5" width="392.69" height="247.42"/>
    <path class="cls-4" d="M312.88,196.9s-10.41-10.1-3.77-27.29c0,0,19.62,13.09,16.46,25.35s-12.69,1.95-12.69,1.95Z"/>
    <path class="cls-4" d="M338.85,198.19s9.66-11.05,2.12-28.58c0,0-14.98,9.93-15.05,28.58s12.92,0,12.92,0Z"/>
    <line class="cls-9" x1="366.07" y1="225.44" x2="20.4" y2="225.44"/>
    <path class="cls-5" d="M44.87,224.15v-5.14s.63-1.98,4.39-2.15,28.48,0,28.48,0c0,0,2.37.18,2.55,2.75s0,4.54,0,4.54h-35.43Z"/>
    <path class="cls-5" d="M57.98,215.72v-20.76s.92-1.98,2.9-1.96,4.15,0,4.15,0c0,0,1.78-.36,1.77,2.01s0,20.72,0,20.72h-8.82Z"/>
    <path class="cls-9" d="M62.39,192.01v-106.61l-40.75,17.77,80.5-35.14s2.58-2.36,2.74,4.76,0,17.21,0,17.21"/>
    <rect class="cls-10" x="80.56" y="91.17" width="47.71" height="26.35"/>
    <rect class="cls-6" x="91.86" y="166.95" width="17.32" height="42.79"/>
    <rect class="cls-6" x="110.43" y="138.87" width="83.04" height="39.2"/>
    <rect class="cls-6" x="196.17" y="138.87" width="83.03" height="39.2"/>
    <rect class="cls-6" x="281.03" y="166.84" width="17.35" height="42.96"/>
    <rect class="cls-6" x="110.43" y="194.96" width="168.76" height="13.83"/>
    <rect class="cls-6" x="110.43" y="178.07" width="84.38" height="16.89"/>
    <rect class="cls-6" x="195.6" y="178.07" width="83.6" height="16.89"/>
    <rect class="cls-8" x="115.9" y="209.74" width="10.06" height="14.41"/>
    <rect class="cls-8" x="263.75" y="209.91" width="10.06" height="14.41"/>
    <rect class="cls-7" x="159.56" y="107.39" width="119.64" height="7.25"/>
    <rect class="cls-1" x="183.47" y="55.6" width="34.38" height="51.79"/>
    <rect class="cls-3" x="193.48" y="65.22" width="20.5" height="31.61"/>
    <rect class="cls-1" x="208.98" y="21.07" width="61.37" height="86.32"/>
    <rect class="cls-3" x="219.38" y="32.37" width="39.6" height="64.46"/>
    <path class="cls-4" d="M325.58,148.54s-24.63,30.62,0,56.95c0,0,21.87-31.73,0-56.95Z"/>
    <path class="cls-8" d="M308.51,198.19h33.38s8.86,15.71-2.77,26.13h-27.93s-9.55-9.59-2.69-26.13Z"/>
  </g>
</svg>