<?xml version="1.0" encoding="UTF-8"?>
<svg id="Layer_2" data-name="Layer 2" xmlns="http://www.w3.org/2000/svg" viewBox="0 0 82.55 107.74">
  <defs>
    <style>
      .cls-1 {
        stroke: #8c8d8e;
      }

      .cls-1, .cls-2, .cls-3, .cls-4 {
        stroke-linecap: round;
        stroke-miterlimit: 10;
      }

      .cls-1, .cls-3, .cls-4 {
        fill: #c2c1c0;
      }

      .cls-2 {
        fill: #231f20;
        stroke: #231f20;
      }

      .cls-3 {
        stroke: #adadad;
        stroke-width: 2px;
      }

      .cls-4 {
        stroke: #545556;
      }
    </style>
  </defs>
  <g id="Layer_1-2" data-name="Layer 1">
    <rect class="cls-3" x="1" y="1" width="80.55" height="105.74" rx="1.97" ry="1.97"/>
    <circle class="cls-1" cx="70.26" cy="8.45" r="3.67"/>
    <circle class="cls-4" cx="70.26" cy="8.45" r=".4"/>
    <path class="cls-2" d="M43.36,50.31s-3.12-3.12-6.84,0,1.79,11.46,1.79,11.46c0,0,2.31,2.23,3.2,0,0,0,1.34,2.36,2.83.99s2.68-4.12,2.68-4.12c0,0-6.99-2.53,0-5.58,0,0,1.93-5.21-3.64-2.75Z"/>
    <path class="cls-2" d="M42.17,44.56s1.78,1.11,1.41,3.34-1.41-3.34-1.41-3.34Z"/>
  </g>
</svg>