<?xml version="1.0" encoding="UTF-8"?>
<svg id="Layer_2" data-name="Layer 2" xmlns="http://www.w3.org/2000/svg" viewBox="0 0 104.78 106.08">
  <defs>
    <style>
      .cls-1, .cls-2, .cls-3, .cls-4, .cls-5, .cls-6, .cls-7, .cls-8 {
        stroke-miterlimit: 10;
      }

      .cls-1, .cls-2, .cls-3, .cls-5, .cls-6, .cls-8 {
        stroke: #231f20;
      }

      .cls-1, .cls-6, .cls-9 {
        fill: none;
      }

      .cls-2, .cls-5, .cls-6 {
        stroke-width: 2px;
      }

      .cls-2, .cls-8 {
        fill: #fff;
      }

      .cls-3 {
        fill: #691c0e;
      }

      .cls-4 {
        fill: #545556;
        stroke: #c2c1c0;
      }

      .cls-4, .cls-7 {
        stroke-width: .5px;
      }

      .cls-5 {
        fill: #b95f28;
      }

      .cls-10 {
        fill: #884516;
      }

      .cls-10, .cls-7, .cls-9 {
        stroke: #fcb216;
      }

      .cls-10, .cls-9 {
        stroke-linecap: round;
        stroke-linejoin: round;
      }

      .cls-7 {
        fill: #fcb216;
      }
    </style>
  </defs>
  <g id="Layer_1-2" data-name="Layer 1">
    <g>
      <path class="cls-4" d="M92.86,3s-2.25-2.7-3.69-.88.88,3.36.88,3.36"/>
      <path class="cls-4" d="M89.63,6.67s-2.25-2.7-3.69-.88.88,3.36.88,3.36"/>
      <path class="cls-4" d="M86.33,9.8s-2.25-2.7-3.69-.88.88,3.36.88,3.36"/>
      <path class="cls-4" d="M93.69,21.67s2.3,2.68,3.64.6-.65-2.93-1.63-3.36"/>
      <path class="cls-4" d="M97.09,17.43s2.3,2.68,3.64.6-.65-2.93-1.63-3.36"/>
      <path class="cls-4" d="M100.44,14.28s2.3,2.68,3.64.6-.65-2.93-1.63-3.36"/>
      <path class="cls-5" d="M58.54,41.09s-11.3-13.47-21.18,1.08c0,0-1.62,9-7.65,9.74-6.02.74-30.38,3.76-28.62,24.58s27.44,30.55,34.47,28.26c0,0,12.84-.35,18.39-19.99,0,0,.58-11.12,8.33-13.05,7.75-1.94,12.05-15.63,2.51-23.41-1.07-1.47-3.99-4.61-6.26-7.2Z"/>
      <rect class="cls-9" x="22.8" y="69.79" width="4.79" height="22.25" transform="translate(-49.84 41.51) rotate(-45)"/>
      <ellipse class="cls-10" cx="44.05" cy="63.75" rx="7.99" ry="7.83"/>
      <ellipse class="cls-9" cx="44.05" cy="63.75" rx="9.87" ry="9.74"/>
      <path class="cls-3" d="M46.43,53.68l36.95-36.58s1.3-2.84.29-4.38c0,0,6.22-4.94,10.15-12.12,0,0,8.69,2.52,10.2,10.24,0,0-7.91,6.04-10.61,10.52,0,0-2.93-.18-4.53,1.33s-35.49,36.63-35.49,36.63c0,0-2.68-5.05-6.96-5.63Z"/>
      <line class="cls-1" x1="49.34" y1="51.21" x2="55.37" y2="56.82"/>
      <line class="cls-1" x1="52.03" y1="48.5" x2="57.87" y2="54.01"/>
      <line class="cls-1" x1="54.83" y1="45.66" x2="60.65" y2="51.26"/>
      <line class="cls-1" x1="62" y1="38.53" x2="67.72" y2="44.1"/>
      <line class="cls-1" x1="65.89" y1="34.74" x2="71.5" y2="40.11"/>
      <line class="cls-1" x1="69.99" y1="30.58" x2="75.6" y2="35.95"/>
      <line class="cls-1" x1="74.1" y1="26.61" x2="79.55" y2="31.83"/>
      <line class="cls-1" x1="78.61" y1="22.14" x2="83.87" y2="27.22"/>
      <line class="cls-6" x1="82.71" y1="18.22" x2="87.88" y2="23.04"/>
      <path class="cls-7" d="M86.19,13.48s-.41-2.14,1.47-1.51-1.45,2.78-1.47,1.51Z"/>
      <path class="cls-7" d="M90.71,8.77c1.88.63-1.45,2.78-1.47,1.51,0,0-.41-2.14,1.47-1.51"/>
      <path class="cls-7" d="M93.95,4.59c1.88.63-1.45,2.78-1.47,1.51,0,0-.41-2.14,1.47-1.51"/>
      <path class="cls-7" d="M99.34,11.88c-1.9-.57,1.36-2.82,1.42-1.56,0,0,.48,2.12-1.42,1.56"/>
      <path class="cls-7" d="M96.03,15.36c-1.9-.57,1.36-2.82,1.42-1.56,0,0,.48,2.12-1.42,1.56"/>
      <path class="cls-7" d="M92.22,19.28c-1.9-.57,1.36-2.82,1.42-1.56,0,0,.48,2.12-1.42,1.56"/>
      <line class="cls-2" x1="59" y1="41.55" x2="64.65" y2="47.13"/>
      <line class="cls-8" x1="56.95" y1="43.61" x2="62.58" y2="49.11"/>
    </g>
  </g>
</svg>