<?xml version="1.0" encoding="UTF-8"?>
<svg id="Layer_2" data-name="Layer 2" xmlns="http://www.w3.org/2000/svg" viewBox="0 0 24.27 20.34">
  <defs>
    <style>
      .cls-1 {
        fill: #ffd654;
      }
    </style>
  </defs>
  <g id="Layer_1-2" data-name="Layer 1">
    <g>
      <path class="cls-1" d="M1.64,14.7c-.12.07-.37-.08-.65-.59C.33,12.76,0,11.07,0,10.2c0-.81.32-2.6,1.05-4.11.29-.52.5-.57.59-.51-.03.38-.05.75-.08,1.11-.13-.09-.3-.03-.5.24-.55.88-.82,2.18-.82,3.26,0,1.01.24,2.27.81,3.19.18.26.39.37.52.27.02.35.05.7.07,1.06Z"/>
      <path class="cls-1" d="M2.08,4.87c.18-.37.45-.78.73-1.06.42-.44.72-.37.92.29.17.51.26,1.47.26,2.6,0,1.95-.28,3.26-.62,3.72v.06c.25.37.4,1.4.48,2.93.11,2.06.19,3.54.26,4.17-.15-.12-.3-.24-.45-.36-.05-.44-.13-1.72-.22-3.47-.1-1.95-.27-2.65-.63-2.75-.12-.02-.25-.03-.37-.05v5.09c-.13-.14-.25-.29-.37-.44V4.87ZM2.45,9.8c.13,0,.26-.02.4-.03.42,0,.72-1.07.72-2.69,0-1.82-.31-2.39-.73-2.04-.19.16-.32.35-.38.47v4.29Z"/>
      <path class="cls-1" d="M5.37,18.44v-7.02c-.39-3.21-.76-6.16-1.13-8.77.17-.13.34-.25.51-.36.17,1.34.34,2.74.51,4.21.14,1.2.25,2.21.37,3.38,0,0,0,0,.01,0,.11-1.1.23-2.23.38-3.57.18-1.63.37-3.31.55-5.03.19-.09.38-.17.57-.24-.44,3.67-.87,7.17-1.29,10.41v7.28c-.16-.09-.33-.18-.49-.27Z"/>
      <path class="cls-1" d="M8.34.3c-.14,2.43-.4,5.48-.56,6.78-.11.08-.22.15-.33.23.13-1.63.28-4.55.35-6.58.18-.15.36-.29.55-.43Z"/>
      <path class="cls-1" d="M8.95,19.88V.46c.19-.05.39-.09.58-.13.44,3.23.89,6.57,1.34,9.95.31,2.35.56,4.48.76,6.55,0,0,0-.02.01-.03-.05-2.7-.06-5.15-.06-8.28V.09c.17,0,.34-.01.51-.01v20.17c-.18,0-.37,0-.55-.01-.45-3.43-.89-6.86-1.34-10.22-.29-2.21-.57-4.46-.78-6.55,0,.01-.01.02-.02.03.03,2.47.04,4.83.04,8.1v8.39c-.17-.03-.34-.07-.5-.11Z"/>
      <path class="cls-1" d="M16.6,9.97c0,6.36-.84,10.11-1.9,10.36-1.1.23-1.89-3.89-1.89-9.98,0-6.4.84-10.58,1.95-10.34,1.14.28,1.84,4.48,1.84,9.96ZM13.39,10.28c0,4.29.49,8.11,1.34,7.97.85-.17,1.32-3.88,1.32-8.17,0-3.76-.42-7.83-1.31-8.01-.89-.15-1.34,3.8-1.34,8.21Z"/>
      <path class="cls-1" d="M17.94,1.09c-.13,2.12-.38,4.88-.54,6.1-.11.05-.22.1-.33.15.13-1.59.28-4.36.34-6.25.18,0,.35,0,.52,0Z"/>
      <path class="cls-1" d="M21.35,10.94c-.02-1.77-.05-3.94-.05-5.54,0,0,0,0-.01,0-.11,1.43-.24,3.01-.4,4.89-.19,2.21-.38,4.58-.58,7.1-.11.09-.22.17-.33.25-.19-2.27-.38-4.67-.57-7.19-.17-2.24-.32-4.38-.42-6.38,0,0,0,0-.01,0-.01,2.04-.04,4.8-.07,7.28-.03,2.37-.07,4.75-.1,7.15-.15.09-.31.17-.46.25.09-5.77.17-11.44.26-17.02.2.11.41.23.61.36.21,2.73.41,5.35.61,7.83.15,1.9.26,3.51.35,5.01,0,0,0,0,.01,0,.09-1.54.21-3.19.35-4.98.2-2.29.39-4.42.58-6.37.17.16.34.34.51.51.06,4.13.12,8.12.19,11.98-.12.14-.25.27-.38.41-.03-1.82-.05-3.66-.08-5.52Z"/>
      <path class="cls-1" d="M24.27,10.13c0,.93-.33,2.62-.91,3.87-.6,1.26-1.15-.32-1.14-3.74,0-3.59.57-5.16,1.18-3.87.61,1.35.88,2.94.88,3.74ZM22.59,10.22c0,2.18.32,3.75.78,2.97.46-.81.66-2.1.66-3.05,0-.82-.17-2.15-.66-3-.49-.82-.79.85-.79,3.08Z"/>
    </g>
  </g>
</svg>