<?xml version="1.0" encoding="UTF-8"?>
<svg id="Layer_2" data-name="Layer 2" xmlns="http://www.w3.org/2000/svg" viewBox="0 0 132.83 181.77">
  <defs>
    <style>
      .cls-1 {
        fill: #bb1f35;
      }

      .cls-1, .cls-2 {
        stroke: #bb1f35;
      }

      .cls-1, .cls-2, .cls-3, .cls-4 {
        stroke-miterlimit: 10;
      }

      .cls-5 {
        fill: #ffd654;
      }

      .cls-2 {
        fill: none;
      }

      .cls-3 {
        fill: #fff;
        stroke: #231f20;
      }

      .cls-4 {
        fill: #ed1943;
        stroke: #ed1943;
      }
    </style>
  </defs>
  <g id="Layer_1-2" data-name="Layer 1">
    <path class="cls-4" d="M38.99.5S-30.61,7.88,17.37,110.16c0,0,12.13,30.05,10.02,41.12,0,0,.53,19.51,37.43,29s61.68-52.19,61.68-52.19c0,0,6.33-17.93,5.8-33.74s-5.8-65.9-27.41-80.14C83.27-.02,38.99.5,38.99.5Z"/>
    <path class="cls-2" d="M127.37,90.89s2.14,42.29-41.82,66.1c0,0-29.31,5.19-42.74-4.58s-19.54-41.21-19.54-41.21c0,0-24.72-50.28-13.13-77.35,11.59-27.07,90.06,0,90.06,0,0,0,33.49,8.42,27.17,57.03Z"/>
    <path class="cls-3" d="M15.36,54.31s3.36,13.02,9.22,7.05c2.02-2.06,2.39-4.54,2-6.9-.73-4.47-4.17-8.51-4.17-8.51l-7.05.43v7.92Z"/>
    <path class="cls-3" d="M23.07,38.04v6.73l4.45,9.68s5.64-2.84,5.42-5.56-.65-6.51-.65-6.51c0,0-3.9-6.18-9.22-4.34Z"/>
    <path class="cls-3" d="M32.94,34.57s7.26-10.96,17.78,0c0,0,1.19,10.2-.54,13.13s-17.25,1.19-17.25,1.19v-14.32Z"/>
    <path class="cls-3" d="M75.35,40.21s1.67,7.81-24.22,6.73l.79-12.26s3.17-10.63,15.69-5.53c0,0,7.2,5.21,7.74,11.06Z"/>
    <path class="cls-3" d="M75.89,36.73s.11,7.7,9.87,7.38,1.74-12.69,1.74-12.69c0,0-5.42-2.39-11.61,5.32Z"/>
    <path class="cls-3" d="M93.68,39.54s1.41,4.78,3.58,7.93,5.21,1.08,5.21,1.08c0,0,3.04-3.15,1.95-6.18s-8.68-4.25-10.74-2.83Z"/>
    <path class="cls-3" d="M103.44,49.22s2.49,3.35,5.21,1.29,1.52-6.39,1.52-6.39l-4.88-.77-1.84,5.87Z"/>
    <path class="cls-3" d="M108.43,51.7s6.62,5.86,9.87,1.52c0,0-3.61-6.83-6.94-8.14l-2.93,6.62Z"/>
    <path class="cls-3" d="M37.44,115.82s-18.58,7.06,12.9,38.7c0,0,29.8,8.91,45.92-6.6s19.66-18.43,23.5-29.33c0,0-2.61-3.23-6.3-.46s-1.23,5.84-1.23,5.84c0,0-3.99,1.38-3.38,4.3,0,0-4.3,3.69-3.07,5.38,0,0-5.84,6.3-4.91,7.53s-.77-.46-.77-.46c0,0-5.68,1.23-4.15,5.68,0,0-9.98.15-13.36,7.06,0,0-11.37-.15-11.52,1.69,0,0-11.83-3.23-13.05-.92,0,0-8.6-7.06-9.83-5.22,0,0-2.92-8.91-6.6-7.99,0,0,3.38-9.52-1.23-9.52,0,0-.31-8.91-2.76-8.91,0,0,7.99-4.45-.15-6.76Z"/>
    <path class="cls-1" d="M53.9,80.1s-34.23,10.25,0,54.33c0,0,19.31,20.15,47.36,2.02,0,0,39-54.65,12.34-59.43,0,0-7.98-3.78-30.36,8.16,0,0-13.03,6.37-17.8.4s-11.54-5.47-11.54-5.47Z"/>
    <path class="cls-1" d="M75.37,62.92v3.75s-5.95,2.98-2.56,7.36,8.95-.99,8.95-.99c0,0,.99-5.57-1.99-5.57s-1.92-5.57-1.92-5.57"/>
    <g>
      <path class="cls-5" d="M19.82,112.28c-.62.36-1.84-.38-3.23-2.91-3.24-6.69-4.85-15.07-4.87-19.41.03-4.01,1.59-12.89,5.2-20.35,1.45-2.58,2.49-2.81,2.93-2.52-.14,1.87-.27,3.7-.4,5.49-.63-.47-1.5-.16-2.47,1.19-2.73,4.36-4.05,10.78-4.07,16.13.03,5,1.19,11.26,4,15.77.91,1.28,1.91,1.82,2.58,1.31.11,1.73.23,3.49.35,5.28Z"/>
      <path class="cls-5" d="M21.99,63.62c.9-1.81,2.25-3.83,3.6-5.24,2.1-2.2,3.55-1.81,4.58,1.44.83,2.53,1.31,7.27,1.31,12.88,0,9.67-1.4,16.15-3.09,18.42v.3c1.23,1.83,2,6.93,2.39,14.52.54,10.17.94,17.54,1.29,20.63-.75-.58-1.49-1.18-2.22-1.8-.27-2.19-.63-8.5-1.08-17.19-.47-9.63-1.35-13.13-3.13-13.62-.61-.08-1.22-.17-1.81-.26v25.19c-.63-.7-1.24-1.43-1.84-2.17,0-17.7,0-35.4,0-53.09ZM23.83,88c.64-.04,1.3-.09,1.97-.13,2.1-.02,3.55-5.33,3.55-13.32,0-9.01-1.54-11.85-3.62-10.13-.95.8-1.6,1.74-1.9,2.35v21.22Z"/>
      <path class="cls-5" d="M38.28,130.75v-34.75c-1.92-15.88-3.78-30.48-5.58-43.42.84-.63,1.69-1.23,2.55-1.81.83,6.62,1.67,13.58,2.52,20.82.7,5.97,1.24,10.93,1.82,16.73.02,0,.04,0,.05,0,.52-5.46,1.15-11.03,1.88-17.66.9-8.07,1.81-16.38,2.73-24.9.94-.43,1.89-.83,2.84-1.21-2.18,18.19-4.32,35.5-6.41,51.52v36.02c-.81-.43-1.61-.88-2.41-1.35Z"/>
      <path class="cls-5" d="M52.99,41c-.69,12.02-1.97,27.14-2.79,33.53-.55.38-1.1.76-1.65,1.14.64-8.07,1.41-22.51,1.73-32.56.9-.72,1.8-1.42,2.71-2.12Z"/>
      <path class="cls-5" d="M55.97,137.86V41.76c.96-.23,1.92-.44,2.89-.63,2.2,15.99,4.42,32.52,6.65,49.26,1.55,11.64,2.76,22.18,3.76,32.4.02-.05.04-.1.06-.14-.25-13.32-.31-25.45-.31-40.98v-41.72c.85-.03,1.7-.05,2.55-.05v99.81c-.91,0-1.83-.02-2.74-.06-2.22-16.96-4.43-33.93-6.63-50.58-1.45-10.96-2.83-22.04-3.87-32.42-.03.05-.06.1-.09.15.15,12.23.21,23.91.21,40.06v41.53c-.83-.17-1.67-.35-2.49-.55Z"/>
      <path class="cls-5" d="M93.82,88.85c0,31.46-4.14,50.03-9.41,51.27-5.45,1.14-9.37-19.25-9.36-49.42,0-31.66,4.16-52.34,9.66-51.14,5.63,1.4,9.1,22.19,9.11,49.3ZM77.94,90.4c0,21.23,2.43,40.15,6.62,39.44,4.22-.82,6.53-19.22,6.53-40.45,0-18.58-2.07-38.72-6.5-39.6-4.41-.75-6.66,18.8-6.66,40.61Z"/>
      <path class="cls-5" d="M100.45,44.9c-.65,10.47-1.87,24.15-2.68,30.19-.54.24-1.08.48-1.62.73.64-7.89,1.39-21.55,1.7-30.93.87-.03,1.74-.02,2.59.01Z"/>
      <path class="cls-5" d="M117.36,93.64c-.11-8.77-.25-19.49-.23-27.41-.02-.02-.05-.03-.07-.05-.53,7.08-1.17,14.91-1.98,24.22-.94,10.92-1.9,22.66-2.89,35.13-.55.43-1.1.85-1.66,1.26-.92-11.21-1.86-23.1-2.82-35.59-.84-11.09-1.57-21.71-2.08-31.6-.02,0-.04-.02-.05-.02-.05,10.13-.19,23.76-.35,36.05-.16,11.72-.32,23.52-.49,35.4-.75.43-1.51.85-2.28,1.25.43-28.55.87-56.65,1.3-84.26,1.01.56,2.01,1.15,3,1.77,1.02,13.54,2.02,26.5,3.01,38.77.72,9.37,1.3,17.35,1.73,24.77.03-.01.05-.02.08-.04.43-7.61,1.02-15.77,1.76-24.64.98-11.34,1.93-21.88,2.86-31.54.86.82,1.7,1.66,2.52,2.54.31,20.43.62,40.21.92,59.3-.61.69-1.24,1.36-1.88,2.01-.13-8.99-.26-18.1-.38-27.32Z"/>
      <path class="cls-5" d="M131.8,89.63c0,4.61-1.64,13.01-4.53,19.18-2.99,6.26-5.69-1.59-5.66-18.53-.02-17.81,2.84-25.57,5.83-19.18,3.04,6.67,4.34,14.55,4.37,18.52ZM123.46,90.1c-.02,10.79,1.59,18.59,3.89,14.72,2.28-3.99,3.25-10.43,3.27-15.11-.03-4.08-.86-10.66-3.25-14.88-2.42-4.05-3.93,4.21-3.9,15.27Z"/>
    </g>
  </g>
</svg>