<?xml version="1.0" encoding="UTF-8"?>
<svg id="Layer_2" data-name="Layer 2" xmlns="http://www.w3.org/2000/svg" viewBox="0 0 60.84 83.06">
  <defs>
    <style>
      .cls-1 {
        fill: #bb1f35;
      }

      .cls-1, .cls-2 {
        stroke: #bb1f35;
      }

      .cls-1, .cls-2, .cls-3, .cls-4 {
        stroke-miterlimit: 10;
      }

      .cls-5 {
        fill: #ffd654;
      }

      .cls-2 {
        fill: none;
      }

      .cls-3 {
        fill: #fff;
        stroke: #231f20;
      }

      .cls-4 {
        fill: #ed1943;
        stroke: #ed1943;
      }
    </style>
  </defs>
  <g id="Layer_1-2" data-name="Layer 1">
    <path class="cls-4" d="M17.97.5S-13.62,3.85,8.16,50.28c0,0,5.5,13.64,4.55,18.67,0,0,.24,8.85,16.99,13.16s28-23.69,28-23.69c0,0,2.87-8.14,2.63-15.32s-2.63-29.91-12.44-36.38S17.97.5,17.97.5Z"/>
    <path class="cls-2" d="M58.09,41.53s.97,19.2-18.98,30.01c0,0-13.3,2.36-19.4-2.08s-8.87-18.71-8.87-18.71c0,0-11.22-22.82-5.96-35.11,5.26-12.29,40.88,0,40.88,0,0,0,15.2,3.82,12.33,25.89Z"/>
    <path class="cls-3" d="M7.25,24.92s1.53,5.91,4.19,3.2c.92-.94,1.09-2.06.91-3.13-.33-2.03-1.89-3.86-1.89-3.86l-3.2.2v3.59Z"/>
    <path class="cls-3" d="M10.74,17.54v3.05l2.02,4.39s2.56-1.29,2.46-2.52-.3-2.95-.3-2.95c0,0-1.77-2.81-4.19-1.97Z"/>
    <path class="cls-3" d="M15.23,15.96s3.3-4.97,8.07,0c0,0,.54,4.63-.25,5.96s-7.83.54-7.83.54v-6.5Z"/>
    <path class="cls-3" d="M34.48,18.52s.76,3.55-11,3.05l.36-5.56s1.44-4.83,7.12-2.51c0,0,3.27,2.36,3.51,5.02Z"/>
    <path class="cls-3" d="M34.72,16.95s.05,3.5,4.48,3.35.79-5.76.79-5.76c0,0-2.46-1.08-5.27,2.41Z"/>
    <path class="cls-3" d="M42.8,18.22s.64,2.17,1.62,3.6,2.36.49,2.36.49c0,0,1.38-1.43.89-2.81s-3.94-1.93-4.87-1.28Z"/>
    <path class="cls-3" d="M47.23,22.62s1.13,1.52,2.36.59.69-2.9.69-2.9l-2.22-.35-.84,2.66Z"/>
    <path class="cls-3" d="M49.49,23.74s3,2.66,4.48.69c0,0-1.64-3.1-3.15-3.69l-1.33,3Z"/>
    <path class="cls-3" d="M17.27,52.85s-8.44,3.21,5.86,17.57c0,0,13.52,4.04,20.84-3,7.32-7.04,8.92-8.37,10.67-13.32,0,0-1.19-1.46-2.86-.21s-.56,2.65-.56,2.65c0,0-1.81.63-1.53,1.95,0,0-1.95,1.67-1.39,2.44,0,0-2.65,2.86-2.23,3.42s-.35-.21-.35-.21c0,0-2.58.56-1.88,2.58,0,0-4.53.07-6.07,3.21,0,0-5.16-.07-5.23.77,0,0-5.37-1.46-5.93-.42,0,0-3.9-3.21-4.46-2.37,0,0-1.32-4.04-3-3.63,0,0,1.53-4.32-.56-4.32,0,0-.14-4.04-1.25-4.04,0,0,3.63-2.02-.07-3.07Z"/>
    <path class="cls-1" d="M24.74,36.63s-15.54,4.65,0,24.66c0,0,8.76,9.15,21.5.92,0,0,17.7-24.81,5.6-26.98,0,0-3.62-1.72-13.78,3.7,0,0-5.91,2.89-8.08.18s-5.24-2.48-5.24-2.48Z"/>
    <path class="cls-1" d="M34.49,28.83v1.7s-2.7,1.35-1.16,3.34,4.06-.45,4.06-.45c0,0,.45-2.53-.9-2.53s-.87-2.53-.87-2.53"/>
    <g>
      <path class="cls-5" d="M9.26,51.23c-.28.16-.83-.17-1.47-1.32-1.47-3.03-2.2-6.84-2.21-8.8.01-1.82.72-5.85,2.36-9.23.66-1.17,1.13-1.27,1.33-1.14-.06.85-.12,1.68-.18,2.49-.29-.21-.68-.07-1.12.54-1.24,1.98-1.84,4.89-1.84,7.32.01,2.27.54,5.11,1.81,7.16.41.58.87.82,1.17.6.05.78.1,1.58.16,2.4Z"/>
      <path class="cls-5" d="M10.25,29.16c.41-.82,1.02-1.74,1.63-2.38.95-1,1.61-.82,2.07.65.38,1.15.59,3.3.59,5.84,0,4.39-.64,7.33-1.4,8.36v.13c.56.83.91,3.15,1.09,6.59.25,4.61.43,7.96.59,9.36-.34-.26-.68-.53-1.01-.81-.12-1-.29-3.86-.49-7.8-.21-4.37-.61-5.96-1.42-6.18-.28-.04-.55-.08-.82-.12v11.43c-.28-.32-.56-.65-.83-.98v-24.09ZM11.09,40.22c.29-.02.59-.04.89-.06.95,0,1.61-2.41,1.61-6.04,0-4.09-.7-5.37-1.64-4.59-.43.36-.72.79-.86,1.07v9.63Z"/>
      <path class="cls-5" d="M17.65,59.62c0-5.26,0-10.51,0-15.77-.87-7.21-1.72-13.84-2.53-19.71.38-.28.76-.56,1.16-.82.38,3.01.76,6.16,1.14,9.45.32,2.71.56,4.96.82,7.59,0,0,.02,0,.02,0,.24-2.48.52-5,.85-8.01.41-3.66.82-7.43,1.24-11.3.43-.19.86-.38,1.29-.55-.99,8.25-1.96,16.11-2.91,23.38,0,5.45,0,10.9,0,16.34-.37-.2-.73-.4-1.09-.61Z"/>
      <path class="cls-5" d="M24.32,18.89c-.31,5.45-.89,12.31-1.27,15.21-.25.17-.5.35-.75.52.29-3.67.64-10.22.79-14.78.41-.32.82-.64,1.23-.96Z"/>
      <path class="cls-5" d="M25.68,62.85V19.23c.43-.1.87-.2,1.31-.28,1,7.26,2.01,14.76,3.02,22.36.7,5.28,1.25,10.07,1.7,14.71,0-.02.02-.04.03-.06-.11-6.05-.14-11.55-.14-18.6v-18.93c.39-.02.77-.02,1.16-.02v45.3c-.41,0-.83-.01-1.24-.03-1.01-7.69-2.01-15.39-3.01-22.95-.66-4.98-1.28-10.01-1.75-14.71-.01.02-.03.05-.04.07.07,5.55.1,10.85.1,18.18,0,6.28,0,12.56,0,18.84-.38-.08-.76-.16-1.13-.25Z"/>
      <path class="cls-5" d="M42.85,40.61c0,14.27-1.88,22.7-4.27,23.27-2.47.52-4.25-8.73-4.24-22.43,0-14.37,1.89-23.75,4.38-23.2,2.55.63,4.13,10.07,4.13,22.37ZM35.65,41.31c0,9.64,1.1,18.22,3,17.9,1.91-.37,2.96-8.72,2.96-18.35,0-8.43-.94-17.58-2.95-17.97-2-.34-3.02,8.53-3.02,18.43Z"/>
      <path class="cls-5" d="M45.87,20.66c-.29,4.75-.85,10.96-1.21,13.7-.24.11-.49.22-.73.33.29-3.58.63-9.78.77-14.04.4-.01.79,0,1.17,0Z"/>
      <path class="cls-5" d="M53.54,42.78c-.05-3.98-.11-8.84-.1-12.44-.01,0-.02-.02-.03-.02-.24,3.21-.53,6.77-.9,10.99-.43,4.96-.86,10.29-1.31,15.94-.25.19-.5.38-.75.57-.42-5.09-.85-10.48-1.28-16.15-.38-5.03-.71-9.85-.94-14.34,0,0-.02,0-.02-.01-.02,4.6-.09,10.78-.16,16.36-.07,5.32-.15,10.67-.22,16.06-.34.2-.69.39-1.03.57.2-12.95.39-25.7.59-38.24.46.25.91.52,1.36.8.46,6.15.92,12.03,1.36,17.6.33,4.25.59,7.87.78,11.24.01,0,.02-.01.03-.02.19-3.45.46-7.16.8-11.18.44-5.15.88-9.93,1.3-14.32.39.37.77.75,1.14,1.15.14,9.27.28,18.25.42,26.91-.28.31-.56.62-.85.91-.06-4.08-.12-8.21-.17-12.4Z"/>
      <path class="cls-5" d="M60.09,40.96c0,2.09-.74,5.9-2.06,8.7-1.36,2.84-2.58-.72-2.57-8.4-.01-8.08,1.29-11.59,2.64-8.69,1.38,3.02,1.97,6.6,1.98,8.4ZM56.31,41.17c0,4.9.72,8.43,1.76,6.67,1.04-1.81,1.47-4.73,1.48-6.85-.01-1.85-.39-4.84-1.47-6.75-1.1-1.84-1.78,1.91-1.77,6.92Z"/>
    </g>
  </g>
</svg>